<?xml version="1.0" standalone="no"?>
<!DOCTYPE svg PUBLIC "-//W3C//DTD SVG 20010904//EN"
 "http://www.w3.org/TR/2001/REC-SVG-20010904/DTD/svg10.dtd">
<svg version="1.0" xmlns="http://www.w3.org/2000/svg"
 width="420.000000pt" height="420.000000pt" viewBox="0 0 420.000000 420.000000"
 preserveAspectRatio="xMidYMid meet">
<metadata>
Created by potrace 1.14, written by Peter Selinger 2001-2017
</metadata>
<g transform="translate(0.000000,420.000000) scale(0.100000,-0.100000)"
fill="#000000" stroke="none">
<path d="M1995 3458 c-27 -5 -81 -10 -120 -12 -130 -7 -295 -60 -362 -116 -7
-5 -16 -10 -21 -10 -5 0 -23 -13 -39 -29 -17 -16 -41 -32 -54 -36 -81 -25
-185 -103 -217 -164 -35 -63 -47 -87 -50 -101 -8 -38 -6 -99 5 -137 7 -24 9
-43 6 -43 -3 0 -1 -6 5 -13 10 -12 -4 -46 -27 -67 -7 -6 -29 -66 -38 -102 -3
-13 -8 -70 -10 -127 -7 -139 16 -322 58 -460 28 -94 24 -110 -19 -72 -55 47
-106 -15 -105 -127 1 -37 4 -80 8 -97 3 -16 8 -46 11 -65 6 -43 30 -149 39
-172 6 -16 -1 -18 -73 -18 -73 0 -81 -2 -106 -27 l-28 -27 7 -176 c3 -96 8
-195 10 -220 2 -25 7 -108 11 -185 3 -77 7 -160 9 -185 12 -179 9 -204 -40
-288 -14 -23 -22 -42 -18 -42 4 0 3 -4 -3 -8 -9 -6 -57 -142 -69 -200 -3 -12
-8 -32 -11 -45 -3 -12 -8 -37 -10 -54 l-6 -33 1350 0 1350 0 -15 67 c-25 110
-71 245 -106 314 -19 35 -33 75 -32 89 3 35 15 254 21 385 2 61 6 142 9 180 3
61 17 332 17 345 1 44 -6 65 -28 85 -24 22 -36 25 -101 25 -66 0 -74 2 -69 18
14 50 29 110 33 137 2 17 6 37 9 45 3 8 8 37 11 65 14 130 3 198 -38 223 -17
11 -26 10 -56 -8 -20 -11 -38 -18 -41 -15 -3 3 5 42 18 86 12 44 24 90 26 102
4 31 15 96 20 121 3 11 8 76 11 143 6 134 -6 224 -37 276 -44 73 -53 93 -55
127 -1 19 -3 40 -4 47 0 7 -11 21 -22 32 -17 15 -22 33 -24 78 -1 32 -9 74
-17 93 -15 35 -88 110 -108 110 -5 0 -10 4 -10 8 0 13 -82 92 -95 92 -6 0 -21
9 -33 20 -12 12 -22 17 -22 13 0 -4 -4 -3 -8 2 -11 15 -149 81 -180 86 -4 0
-13 5 -19 11 -7 6 -13 8 -13 4 0 -3 -11 -1 -26 4 -14 6 -37 12 -52 15 -15 3
-38 7 -52 10 -34 7 -98 13 -200 20 -47 4 -89 7 -95 9 -5 1 -32 -2 -60 -6z"/>
</g>
</svg>
